HIERARCHY
ROOT Hips
{
	OFFSET 0.000000 0.000000 0.000000
	CHANNELS 6 Xposition Yposition Zposition Xrotation Yrotation Zrotation
	JOINT Spine
	{
		OFFSET 0.000000 0.049001 0.073502
		CHANNELS 3 Xrotation Yrotation Zrotation
		JOINT Spine1
		{
			OFFSET 0.000000 0.017018 0.096514
			CHANNELS 3 Xrotation Yrotation Zrotation
			JOINT Spine2
			{
				OFFSET 0.000000 0.008542 0.097630
				CHANNELS 3 Xrotation Yrotation Zrotation
				JOINT Spine3
				{
					OFFSET 0.000000 0.000000 0.098003
					CHANNELS 3 Xrotation Yrotation Zrotation
					JOINT Neck
					{
						OFFSET 0.000000 -0.036751 0.257258
						CHANNELS 3 Xrotation Yrotation Zrotation
						JOINT Head
						{
							OFFSET 0.000000 -0.023400 0.132707
							CHANNELS 3 Xrotation Yrotation Zrotation
							End Site
							{
								OFFSET 0.000000 0.000000 0.000000
							}
						}
					}
					JOINT RightShoulder
					{
						OFFSET -0.030410 -0.050683 0.164214
						CHANNELS 3 Xrotation Yrotation Zrotation
						JOINT RightArm
						{
							OFFSET -0.151036 0.000000 0.000000
							CHANNELS 3 Xrotation Yrotation Zrotation
							JOINT RightForeArm
							{
								OFFSET -0.279942 0.000000 0.000000
								CHANNELS 3 Xrotation Yrotation Zrotation
								JOINT RightHand
								{
									OFFSET -0.265034 0.000000 0.000000
									CHANNELS 3 Xrotation Yrotation Zrotation
									JOINT RightHandEnd
									{
										OFFSET -0.071866 0.000000 0.000000
										CHANNELS 3 Xrotation Yrotation Zrotation
										End Site
										{
											OFFSET 0.000000 0.000000 0.000000
										}
									}
									JOINT RightHandThumb1
									{
										OFFSET -0.028746 -0.047911 -0.019164
										CHANNELS 3 Xrotation Yrotation Zrotation
										End Site
										{
											OFFSET 0.000000 0.000000 0.000000
										}
									}
								}
							}
						}
					}
					JOINT LeftShoulder
					{
						OFFSET 0.030410 -0.050683 0.164214
						CHANNELS 3 Xrotation Yrotation Zrotation
						JOINT LeftArm
						{
							OFFSET 0.151036 0.000000 0.000000
							CHANNELS 3 Xrotation Yrotation Zrotation
							JOINT LeftForeArm
							{
								OFFSET 0.279942 0.000000 0.000000
								CHANNELS 3 Xrotation Yrotation Zrotation
								JOINT LeftHand
								{
									OFFSET 0.265034 0.000000 0.000000
									CHANNELS 3 Xrotation Yrotation Zrotation
									JOINT LeftHandEnd
									{
										OFFSET 0.071866 0.000000 0.000000
										CHANNELS 3 Xrotation Yrotation Zrotation
										End Site
										{
											OFFSET 0.000000 0.000000 0.000000
										}
									}
									JOINT LeftHandThumb1
									{
										OFFSET 0.028746 -0.047911 -0.019164
										CHANNELS 3 Xrotation Yrotation Zrotation
										End Site
										{
											OFFSET 0.000000 0.000000 0.000000
										}
									}
								}
							}
						}
					}
				}
			}
		}
	}
	JOINT RightUpLeg
	{
		OFFSET -0.090216 0.000000 -0.026355
		CHANNELS 3 Xrotation Yrotation Zrotation
		JOINT RightLeg
		{
			OFFSET 0.000000 0.000000 -0.402871
			CHANNELS 3 Xrotation Yrotation Zrotation
			JOINT RightFoot
			{
				OFFSET 0.000000 0.000000 -0.414145
				CHANNELS 3 Xrotation Yrotation Zrotation
				JOINT RightToeBase
				{
					OFFSET 0.000000 -0.146359 -0.053270
					CHANNELS 3 Xrotation Yrotation Zrotation
					End Site
					{
						OFFSET 0.000000 0.000000 0.000000
					}
				}
			}
		}
	}
	JOINT LeftUpLeg
	{
		OFFSET 0.090216 0.000000 -0.026355
		CHANNELS 3 Xrotation Yrotation Zrotation
		JOINT LeftLeg
		{
			OFFSET 0.000000 0.000000 -0.402871
			CHANNELS 3 Xrotation Yrotation Zrotation
			JOINT LeftFoot
			{
				OFFSET 0.000000 0.000000 -0.414145
				CHANNELS 3 Xrotation Yrotation Zrotation
				JOINT LeftToeBase
				{
					OFFSET 0.000000 -0.146359 -0.053270
					CHANNELS 3 Xrotation Yrotation Zrotation
					End Site
					{
						OFFSET 0.000000 0.000000 0.000000
					}
				}
			}
		}
	}
}
MOTION
Frames: 7
Frame Time: 0.033333
0.114457 -0.768612 0.902947 3.759300 3.311700 -77.816100 1.362200 -3.370900 -0.245800 -0.613800 -0.844200 -0.194000 7.496000 0.191100 -2.188900 3.319300 0.549300 -1.231700 7.659400 2.444900 1.979900 5.818400 3.918600 4.220700 13.253100 -1.792500 7.565500 26.251500 -53.173000 35.261000 0.000000 0.000100 89.283100 -13.144000 25.285800 -1.483500 0.000000 0.000000 0.000000 0.000000 0.000000 0.000000 9.359500 5.796200 -7.724400 8.486500 39.146000 -37.587900 0.000000 -0.000100 -72.946100 -23.327100 -41.091800 -2.013000 0.000000 0.000000 0.000000 0.000000 0.000000 0.000000 -0.627800 -8.528000 -32.499800 10.005200 0.000000 0.000000 -7.648700 6.101100 -1.106300 -3.999300 0.000000 0.000000 -27.010500 -6.926000 18.376300 34.901200 0.000000 0.000000 2.046600 -1.052900 14.391000 -28.847500 0.000000 0.000000 
0.093906 -0.772257 0.902396 2.288200 3.744400 -75.642500 1.127600 -2.698000 -0.386700 -0.757800 -0.750500 -0.180900 7.621900 0.661100 -1.914000 3.499000 0.728400 -1.448000 8.683800 2.853100 1.729600 6.187500 3.445600 3.413500 12.779600 -1.486200 8.001500 27.668600 -52.916000 37.302500 0.000000 0.000100 88.936700 -17.552100 27.519300 -1.219200 0.000000 0.000000 0.000000 0.000000 0.000000 0.000000 9.440100 6.275700 -7.115400 11.223600 40.711300 -41.196300 0.000000 -0.000100 -73.479800 -20.606400 -40.574200 -1.259700 0.000000 0.000000 0.000000 0.000000 0.000000 0.000000 0.099700 -6.926200 -30.133600 12.876300 0.000000 0.000000 -9.791500 5.756800 -5.452200 -4.333000 0.000000 0.000000 -22.327000 -5.131000 27.616600 26.316800 0.000000 0.000000 5.584100 -6.457100 9.831000 -19.083600 0.000000 0.000000 
0.074557 -0.776686 0.900400 0.536400 3.534100 -73.219400 0.605100 -1.755200 -0.470100 -0.998500 -0.427200 -0.155000 7.600700 1.167700 -1.907500 3.662800 0.900500 -1.710600 9.718500 2.964800 1.352000 6.800600 3.120800 2.697700 12.018900 -1.707900 8.223500 28.692800 -52.708800 38.828600 0.000000 0.000100 88.380600 -22.662000 29.158300 -1.103100 0.000000 0.000000 0.000000 0.000000 0.000000 0.000000 9.551500 6.542700 -6.428100 15.385600 41.782500 -45.052700 0.000000 -0.000100 -74.930400 -18.912900 -39.450200 -0.714300 0.000000 0.000000 0.000000 0.000000 0.000000 0.000000 -1.105100 -4.735600 -26.576500 18.303900 0.000000 0.000000 -12.502200 5.731600 -11.625900 -5.060100 0.000000 0.000000 -18.873300 -2.534200 34.450700 21.797400 0.000000 0.000000 5.574400 -12.614800 3.680700 -10.726800 0.000000 0.000000 
0.059065 -0.780491 0.897943 -1.663400 2.403000 -70.101500 -0.060500 -0.240500 -0.505100 -1.334900 0.153900 -0.081600 7.544300 1.716300 -2.364500 3.765300 1.061400 -2.038000 10.498700 2.780800 0.735500 7.516600 2.833000 2.032800 11.108100 -2.622900 8.201000 28.855300 -52.894200 39.484500 0.000000 0.000100 87.672300 -28.003800 29.523400 -1.549500 0.000000 0.000000 0.000000 0.000000 0.000000 0.000000 9.743100 6.680900 -6.167000 19.974100 41.842400 -48.481100 0.000000 -0.000100 -77.097500 -18.292700 -37.898600 -0.266500 0.000000 0.000000 0.000000 0.000000 0.000000 0.000000 -4.857500 -1.770800 -22.941000 26.641300 0.000000 0.000000 -14.337600 5.703000 -19.014100 -7.208200 0.000000 0.000000 -17.263400 1.061800 34.398400 19.774700 0.000000 0.000000 3.987400 -15.416800 0.328100 -9.060000 0.000000 0.000000 
0.046675 -0.782531 0.895792 -3.952500 0.866600 -66.582000 -0.555300 1.586500 -0.526000 -1.550500 0.756100 -0.014800 7.412700 2.254300 -2.980600 3.813300 1.242700 -2.393600 11.204800 2.541900 -0.067400 8.250100 2.556600 1.332000 10.358400 -3.407900 8.034100 28.638000 -53.844000 39.825100 0.000000 0.000100 86.678500 -32.732100 28.800800 -3.286400 0.000000 0.000000 0.000000 0.000000 0.000000 0.000000 10.219400 6.444500 -6.221100 24.572300 41.247600 -51.887000 0.000000 -0.000100 -79.310200 -18.603800 -36.466800 0.069200 0.000000 0.000000 0.000000 0.000000 0.000000 0.000000 -9.774300 1.244700 -19.352500 36.242800 0.000000 0.000000 -13.958900 4.603700 -25.729800 -11.249400 0.000000 0.000000 -16.568400 4.890000 30.904900 18.480000 0.000000 0.000000 3.521900 -15.371600 -0.263700 -10.638800 0.000000 0.000000 
0.034849 -0.782343 0.894936 -5.877600 -0.290000 -63.240600 -0.740800 3.207200 -0.577800 -1.562700 1.148600 0.030900 7.325900 2.683300 -3.365000 3.882900 1.451000 -2.693800 12.068900 2.468000 -0.876600 8.996800 2.306000 0.554300 9.883600 -3.567100 7.959000 28.642600 -55.093900 40.156200 0.000000 0.000100 85.420700 -36.787600 27.131800 -5.728500 0.000000 0.000000 0.000000 0.000000 0.000000 0.000000 10.783400 5.921900 -6.203300 29.152800 40.423800 -55.652200 0.000000 -0.000100 -81.007200 -19.941100 -35.129300 0.036200 0.000000 0.000000 0.000000 0.000000 0.000000 0.000000 -13.861300 3.186400 -15.139700 44.592000 0.000000 0.000000 -11.899400 2.834200 -29.981000 -16.476900 0.000000 0.000000 -15.569200 7.756300 29.387100 17.352000 0.000000 0.000000 3.694800 -14.786800 -1.414800 -10.577600 0.000000 0.000000 
0.022609 -0.779579 0.895510 -7.215500 -0.953200 -60.041900 -0.743000 4.361500 -0.613000 -1.529500 1.362900 0.048700 7.372500 2.964300 -3.561700 4.018100 1.630500 -2.914800 13.069900 2.509700 -1.597600 9.750000 2.094500 -0.262100 9.764900 -3.440900 7.969500 28.968100 -55.779700 40.194200 0.000000 0.000100 84.549300 -41.280300 23.912600 -6.724300 0.000000 0.000000 0.000000 0.000000 0.000000 0.000000 11.172100 5.360100 -6.032800 33.450400 39.645500 -59.395900 0.000000 -0.000100 -82.269600 -21.701400 -33.585700 -0.199700 0.000000 0.000000 0.000000 0.000000 0.000000 0.000000 -16.424900 3.712200 -10.246800 50.365000 0.000000 0.000000 -9.988100 2.096700 -31.668100 -21.263400 0.000000 0.000000 -14.153300 9.318500 29.977000 16.421300 0.000000 0.000000 3.467000 -14.527500 -4.277900 -9.510300 0.000000 0.000000 
